<?xml version="1.0" encoding="UTF-8" standalone="no"?>
<svg width="27px" height="28px" viewBox="0 0 27 28" version="1.1" xmlns="http://www.w3.org/2000/svg" xmlns:xlink="http://www.w3.org/1999/xlink" xmlns:sketch="http://www.bohemiancoding.com/sketch/ns">
    <!-- Generator: Sketch 3.5.1 (25234) - http://www.bohemiancoding.com/sketch -->
    <title>Page 1</title>
    <desc>Created with Sketch.</desc>
    <defs></defs>
    <g id="Page-1" stroke="none" stroke-width="1" fill="none" fill-rule="evenodd" sketch:type="MSPage">
        <g sketch:type="MSLayerGroup" fill="#48C0EB">
            <path d="M19.9431818,26.3863636 C16.7289545,26.3863636 14.1136364,23.7710455 14.1136364,20.5568182 C14.1136364,17.3425909 16.7289545,14.7272727 19.9431818,14.7272727 C23.1574091,14.7272727 25.7727273,17.3425909 25.7727273,20.5568182 C25.7727273,23.7710455 23.1574091,26.3863636 19.9431818,26.3863636 L19.9431818,26.3863636 Z M1.84090909,26.3863636 C1.50279545,26.3863636 1.22727273,26.1114545 1.22727273,25.7727273 L1.22727273,4.29545455 C1.22727273,3.95672727 1.50279545,3.68181818 1.84090909,3.68181818 L4.90909091,3.68181818 L4.90909091,4.84465909 C4.90909091,5.86022727 5.73504545,6.68556818 6.75,6.68556818 C7.76495455,6.68556818 8.59090909,5.86022727 8.59090909,4.84465909 L8.59090909,3.68181818 L14.7272727,3.68181818 L14.7272727,4.84465909 C14.7272727,5.86022727 15.5532273,6.68556818 16.5681818,6.68556818 C17.5831364,6.68556818 18.4090909,5.86022727 18.4090909,4.84465909 L18.4090909,3.68181818 L22.7045455,3.68181818 C23.0426591,3.68181818 23.3181818,3.95672727 23.3181818,4.29545455 L23.3181818,14.3615455 C22.3148864,13.8129545 21.1649318,13.5 19.9431818,13.5 C16.3644545,13.5 13.4067273,16.17975 12.95325,19.6363636 L11.0454545,19.6363636 C10.7067273,19.6363636 10.4318182,19.9106591 10.4318182,20.25 L10.4318182,22.7045455 C10.4318182,23.0438864 10.7067273,23.3181818 11.0454545,23.3181818 C11.3841818,23.3181818 11.6590909,23.0438864 11.6590909,22.7045455 L11.6590909,20.8636364 L12.9017045,20.8636364 C13.0011136,23.1555682 14.1909545,25.1689091 15.9729545,26.3863636 L1.84090909,26.3863636 Z M6.13636364,1.84090909 C6.13636364,1.50218182 6.41188636,1.22727273 6.75,1.22727273 C7.08811364,1.22727273 7.36363636,1.50218182 7.36363636,1.84090909 L7.36363636,4.84465909 C7.36363636,5.18338636 7.08811364,5.45829545 6.75,5.45829545 C6.41188636,5.45829545 6.13636364,5.18338636 6.13636364,4.84465909 L6.13636364,1.84090909 Z M15.9545455,1.84090909 C15.9545455,1.50218182 16.2300682,1.22727273 16.5681818,1.22727273 C16.9062955,1.22727273 17.1818182,1.50218182 17.1818182,1.84090909 L17.1818182,4.84465909 C17.1818182,5.18338636 16.9062955,5.45829545 16.5681818,5.45829545 C16.2300682,5.45829545 15.9545455,5.18338636 15.9545455,4.84465909 L15.9545455,1.84090909 Z M24.5454545,15.2187955 L24.5454545,4.29545455 C24.5454545,3.2805 23.7195,2.45454545 22.7045455,2.45454545 L18.4090909,2.45454545 L18.4090909,1.84090909 C18.4090909,0.825954545 17.5831364,0 16.5681818,0 C15.5532273,0 14.7272727,0.825954545 14.7272727,1.84090909 L14.7272727,2.45454545 L8.59090909,2.45454545 L8.59090909,1.84090909 C8.59090909,0.825954545 7.76495455,0 6.75,0 C5.73504545,0 4.90909091,0.825954545 4.90909091,1.84090909 L4.90909091,2.45454545 L1.84090909,2.45454545 C0.825954545,2.45454545 0,3.2805 0,4.29545455 L0,25.7727273 C0,26.7876818 0.825954545,27.6136364 1.84090909,27.6136364 L19.0227273,27.6136364 C19.0896136,27.6136364 19.1515909,27.5952273 19.2117273,27.5755909 C19.4522727,27.6001364 19.6965,27.6136364 19.9431818,27.6136364 C23.83425,27.6136364 27,24.4478864 27,20.5568182 C27,18.4244318 26.0451818,16.5141818 24.5454545,15.2187955 L24.5454545,15.2187955 Z" id="Fill-1" sketch:type="MSShapeGroup"></path>
            <path d="M7.97727273,7.97727273 L5.52272727,7.97727273 C5.184,7.97727273 4.90909091,8.25156818 4.90909091,8.59090909 L4.90909091,11.0454545 C4.90909091,11.3847955 5.184,11.6590909 5.52272727,11.6590909 C5.86145455,11.6590909 6.13636364,11.3847955 6.13636364,11.0454545 L6.13636364,9.20454545 L7.97727273,9.20454545 C8.316,9.20454545 8.59090909,8.93025 8.59090909,8.59090909 C8.59090909,8.25156818 8.316,7.97727273 7.97727273,7.97727273" id="Fill-3" sketch:type="MSShapeGroup"></path>
            <path d="M11.0454545,11.6590909 C11.3841818,11.6590909 11.6590909,11.3847955 11.6590909,11.0454545 L11.6590909,9.20454545 L13.5,9.20454545 C13.8387273,9.20454545 14.1136364,8.93025 14.1136364,8.59090909 C14.1136364,8.25156818 13.8387273,7.97727273 13.5,7.97727273 L11.0454545,7.97727273 C10.7067273,7.97727273 10.4318182,8.25156818 10.4318182,8.59090909 L10.4318182,11.0454545 C10.4318182,11.3847955 10.7067273,11.6590909 11.0454545,11.6590909" id="Fill-5" sketch:type="MSShapeGroup"></path>
            <path d="M16.5681818,11.6590909 C16.9069091,11.6590909 17.1818182,11.3847955 17.1818182,11.0454545 L17.1818182,9.20454545 L19.0227273,9.20454545 C19.3614545,9.20454545 19.6363636,8.93025 19.6363636,8.59090909 C19.6363636,8.25156818 19.3614545,7.97727273 19.0227273,7.97727273 L16.5681818,7.97727273 C16.2294545,7.97727273 15.9545455,8.25156818 15.9545455,8.59090909 L15.9545455,11.0454545 C15.9545455,11.3847955 16.2294545,11.6590909 16.5681818,11.6590909" id="Fill-7" sketch:type="MSShapeGroup"></path>
            <path d="M7.97727273,13.5 L5.52272727,13.5 C5.184,13.5 4.90909091,13.7742955 4.90909091,14.1136364 L4.90909091,16.5681818 C4.90909091,16.9075227 5.184,17.1818182 5.52272727,17.1818182 C5.86145455,17.1818182 6.13636364,16.9075227 6.13636364,16.5681818 L6.13636364,14.7272727 L7.97727273,14.7272727 C8.316,14.7272727 8.59090909,14.4529773 8.59090909,14.1136364 C8.59090909,13.7742955 8.316,13.5 7.97727273,13.5" id="Fill-9" sketch:type="MSShapeGroup"></path>
            <path d="M11.0454545,17.1818182 C11.3841818,17.1818182 11.6590909,16.9075227 11.6590909,16.5681818 L11.6590909,14.7272727 L13.5,14.7272727 C13.8387273,14.7272727 14.1136364,14.4529773 14.1136364,14.1136364 C14.1136364,13.7742955 13.8387273,13.5 13.5,13.5 L11.0454545,13.5 C10.7067273,13.5 10.4318182,13.7742955 10.4318182,14.1136364 L10.4318182,16.5681818 C10.4318182,16.9075227 10.7067273,17.1818182 11.0454545,17.1818182" id="Fill-11" sketch:type="MSShapeGroup"></path>
            <path d="M7.97727273,19.6363636 L5.52272727,19.6363636 C5.184,19.6363636 4.90909091,19.9106591 4.90909091,20.25 L4.90909091,22.7045455 C4.90909091,23.0438864 5.184,23.3181818 5.52272727,23.3181818 C5.86145455,23.3181818 6.13636364,23.0438864 6.13636364,22.7045455 L6.13636364,20.8636364 L7.97727273,20.8636364 C8.316,20.8636364 8.59090909,20.5893409 8.59090909,20.25 C8.59090909,19.9106591 8.316,19.6363636 7.97727273,19.6363636" id="Fill-13" sketch:type="MSShapeGroup"></path>
            <path d="M22.8843409,17.97525 L18.4090909,22.4505 L17.0020227,21.0434318 C16.7620909,20.8035 16.3742727,20.8035 16.1343409,21.0434318 C15.8944091,21.2833636 15.8944091,21.6711818 16.1343409,21.9111136 L17.97525,23.7520227 C18.0949091,23.8716818 18.252,23.9318182 18.4090909,23.9318182 C18.5661818,23.9318182 18.7232727,23.8716818 18.8429318,23.7520227 L23.7520227,18.8429318 C23.9919545,18.603 23.9919545,18.2151818 23.7520227,17.97525 C23.5120909,17.7353182 23.1242727,17.7353182 22.8843409,17.97525" id="Fill-15" sketch:type="MSShapeGroup"></path>
        </g>
    </g>
</svg>