<?xml version="1.0" encoding="UTF-8" standalone="no"?>
<svg width="27px" height="27px" viewBox="0 0 27 27" version="1.1" xmlns="http://www.w3.org/2000/svg" xmlns:xlink="http://www.w3.org/1999/xlink" xmlns:sketch="http://www.bohemiancoding.com/sketch/ns">
    <!-- Generator: Sketch 3.5.1 (25234) - http://www.bohemiancoding.com/sketch -->
    <title>Group</title>
    <desc>Created with Sketch.</desc>
    <defs></defs>
    <g id="Page-1" stroke="none" stroke-width="1" fill="none" fill-rule="evenodd" sketch:type="MSPage">
        <g id="Group" sketch:type="MSLayerGroup" fill="#48C0EB">
            <path d="M25.826087,25.4356142 L24.6521739,25.4356142 L24.6521739,24.2617011 C24.6521739,23.9377011 24.3898043,23.6747446 24.0652174,23.6747446 C23.7406304,23.6747446 23.4782609,23.9377011 23.4782609,24.2617011 L23.4782609,25.4356142 L22.3043478,25.4356142 L22.3043478,24.2617011 C22.3043478,23.9377011 22.0419783,23.6747446 21.7173913,23.6747446 C21.3928043,23.6747446 21.1304348,23.9377011 21.1304348,24.2617011 L21.1304348,25.4356142 L19.9565217,25.4356142 L19.9565217,24.2617011 C19.9565217,23.9377011 19.6941522,23.6747446 19.3695652,23.6747446 C19.0449783,23.6747446 18.7826087,23.9377011 18.7826087,24.2617011 L18.7826087,25.4356142 L17.6086957,25.4356142 L17.6086957,22.5008316 C17.6086957,22.1768316 17.3463261,21.9138751 17.0217391,21.9138751 C16.6971522,21.9138751 16.4347826,22.1768316 16.4347826,22.5008316 L16.4347826,25.4356142 L15.2608696,25.4356142 L15.2608696,24.2617011 C15.2608696,23.9377011 14.9985,23.6747446 14.673913,23.6747446 C14.3493261,23.6747446 14.0869565,23.9377011 14.0869565,24.2617011 L14.0869565,25.4356142 L12.9130435,25.4356142 L12.9130435,24.2617011 C12.9130435,23.9377011 12.6506739,23.6747446 12.326087,23.6747446 C12.0015,23.6747446 11.7391304,23.9377011 11.7391304,24.2617011 L11.7391304,25.4356142 L10.5652174,25.4356142 L10.5652174,24.2617011 C10.5652174,23.9377011 10.3028478,23.6747446 9.97826087,23.6747446 C9.65367391,23.6747446 9.39130435,23.9377011 9.39130435,24.2617011 L9.39130435,25.4356142 L8.2173913,25.4356142 L8.2173913,24.2617011 C8.2173913,23.9377011 7.95502174,23.6747446 7.63043478,23.6747446 C7.30584783,23.6747446 7.04347826,23.9377011 7.04347826,24.2617011 L7.04347826,25.4356142 L5.86956522,25.4356142 L5.86956522,24.2617011 C5.86956522,23.9377011 5.60719565,23.6747446 5.2826087,23.6747446 C4.95802174,23.6747446 4.69565217,23.9377011 4.69565217,24.2617011 L4.69565217,25.4356142 L3.52173913,25.4356142 L3.52173913,24.2617011 C3.52173913,23.9377011 3.25936957,23.6747446 2.93478261,23.6747446 C2.61019565,23.6747446 2.34782609,23.9377011 2.34782609,24.2617011 L2.34782609,25.4356142 L1.17391304,25.4356142 L1.17391304,18.9790925 L5.95936957,18.9790925 L5.56669565,20.3138316 C5.50623913,20.5198533 5.56258696,20.7423098 5.7146087,20.8943316 C5.82671739,21.0064403 5.9763913,21.0663098 6.12958696,21.0663098 C6.18476087,21.0663098 6.2411087,21.0586794 6.29569565,21.0428316 L13.3127609,18.9790925 L25.826087,18.9790925 L25.826087,25.4356142 Z M18.5812826,3.87787506 L19.4112391,4.70783158 L9.86556522,14.2540925 L9.0356087,13.4241359 L18.5812826,3.87787506 Z M20.8522174,1.60694028 C21.4321304,1.02820115 22.3724348,1.02937506 22.9511739,1.60694028 L25.0031739,3.65894028 C25.5813261,4.23709245 25.5813261,5.17857071 25.0031739,5.75730984 L23.5621957,7.19828811 L19.4112391,3.04791854 L20.8522174,1.60694028 Z M13.1859783,17.5745055 L12.3554348,16.743962 L21.9016957,7.19770115 L22.7316522,8.02824463 L13.1859783,17.5745055 Z M21.0717391,6.36774463 L11.5254783,15.9140055 L10.6955217,15.084049 L20.2417826,5.53778811 L21.0717391,6.36774463 Z M10.1473043,18.6862011 L7.92332609,16.4622229 L8.51028261,14.5381794 L11.1521739,17.1583533 L11.1521739,17.2182229 L11.111087,17.2182229 L12.0719348,18.1497229 L10.1473043,18.6862011 Z M7.54591304,17.7447229 L8.86421739,19.0636142 L6.99652174,19.6130055 L7.54591304,17.7447229 Z M26.4130435,17.8051794 L14.6152174,17.8051794 L23.9771739,8.44322289 L25.8331304,6.58726637 C26.8685217,5.55128811 26.8685217,3.86496202 25.8331304,2.82898376 L23.7811304,0.776983758 C22.7445652,-0.259581459 21.0588261,-0.258407546 20.0222609,0.776983758 L18.1663043,2.63294028 L7.79008696,13.0091577 C7.78304348,13.0162011 7.78069565,13.0261794 7.77365217,13.0338098 C7.74841304,13.0619838 7.73080435,13.0948533 7.71143478,13.1283098 C7.69030435,13.1629403 7.66858696,13.1958098 7.65508696,13.233962 C7.65215217,13.2427664 7.6451087,13.2492229 7.64217391,13.2580272 L6.30508696,17.8051794 L0.586956522,17.8051794 C0.262369565,17.8051794 0,18.0681359 0,18.3921359 L0,26.0225707 C0,26.3465707 0.262369565,26.6095272 0.586956522,26.6095272 L26.4130435,26.6095272 C26.7376304,26.6095272 27,26.3465707 27,26.0225707 L27,18.3921359 C27,18.0681359 26.7376304,17.8051794 26.4130435,17.8051794 L26.4130435,17.8051794 Z" id="Page-1" sketch:type="MSShapeGroup"></path>
        </g>
    </g>
</svg>