<?xml version="1.0" encoding="UTF-8" standalone="no"?>
<svg width="63px" height="75px" viewBox="0 0 63 75" version="1.1" xmlns="http://www.w3.org/2000/svg" xmlns:xlink="http://www.w3.org/1999/xlink">
    <!-- Generator: Sketch 3.6.1 (26313) - http://www.bohemiancoding.com/sketch -->
    <title>Page 1</title>
    <desc>Created with Sketch.</desc>
    <defs></defs>
    <g id="Page-1" stroke="none" stroke-width="1" fill="none" fill-rule="evenodd">
        <g id="Desktop-HD-Copy" transform="translate(-294.000000, -1007.000000)" fill="#48C0EB">
            <g id="Page-1" transform="translate(294.000000, 1007.000000)">
                <path d="M59.2319277,71.875 L3.11746988,71.875 L3.11746988,12.5 L13.9444428,12.5 L12.9063253,15.625 L7.7936747,15.625 C6.93169428,15.625 6.23493976,16.325 6.23493976,17.1875 L6.23493976,67.1875 C6.23493976,68.05 6.93169428,68.75 7.7936747,68.75 L54.5557229,68.75 C55.4177033,68.75 56.1144578,68.05 56.1144578,67.1875 L56.1144578,17.1875 C56.1144578,16.325 55.4177033,15.625 54.5557229,15.625 L47.8843373,15.625 L46.8462199,12.5 L59.2319277,12.5 L59.2319277,71.875 Z M46.7620482,18.75 L52.996988,18.75 L52.996988,65.625 L9.35240964,65.625 L9.35240964,18.75 L14.0286145,18.75 L46.7620482,18.75 Z M18.2699322,9.375 L26.1929819,9.375 C26.6247515,9.375 27.039375,9.19375 27.3339759,8.8765625 C27.6301355,8.5578125 27.7782154,8.1328125 27.7470407,7.6984375 C27.7454819,7.6671875 27.7189834,7.4703125 27.7143072,7.4390625 C27.7143072,5.4140625 29.3587726,3.765625 31.3788931,3.765625 C33.3990136,3.765625 35.0419202,5.4140625 35.0356852,7.4453125 C35.0325678,7.4796875 35.0107455,7.6640625 35.0091867,7.6984375 C34.9764533,8.1328125 35.1260919,8.5578125 35.4222515,8.8765625 C35.7168524,9.19375 36.1314759,9.375 36.5632455,9.375 L42.5207304,9.375 L44.5985241,15.625 L16.1921386,15.625 L18.2699322,9.375 Z M60.7906627,9.375 L45.8065437,9.375 L45.122259,7.31875 C44.9102711,6.6796875 44.3163931,6.25 43.6445783,6.25 L38.0565136,6.25 C37.4938102,3.065625 34.7130271,0.640625 31.3788931,0.640625 C28.0432003,0.640625 25.2639759,3.065625 24.7012726,6.25 L17.1460843,6.25 C16.4742696,6.25 15.8788328,6.6796875 15.6684036,7.31875 L14.984119,9.375 L1.55873494,9.375 C0.696754518,9.375 0,10.075 0,10.9375 L0,73.4375 C0,74.3 0.696754518,75 1.55873494,75 L60.7906627,75 C61.6526431,75 62.3493976,74.3 62.3493976,73.4375 L62.3493976,10.9375 C62.3493976,10.075 61.6526431,9.375 60.7906627,9.375 L60.7906627,9.375 Z" id="Fill-1"></path>
                <path d="M29.6159639,34.375 L43.6445783,34.375 C44.5065587,34.375 45.2033133,33.675 45.2033133,32.8125 C45.2033133,31.95 44.5065587,31.25 43.6445783,31.25 L29.6159639,31.25 C28.7539834,31.25 28.0572289,31.95 28.0572289,32.8125 C28.0572289,33.675 28.7539834,34.375 29.6159639,34.375" id="Fill-3"></path>
                <path d="M18.7048193,40.625 L43.6445783,40.625 C44.5065587,40.625 45.2033133,39.925 45.2033133,39.0625 C45.2033133,38.2 44.5065587,37.5 43.6445783,37.5 L18.7048193,37.5 C17.8428389,37.5 17.1460843,38.2 17.1460843,39.0625 C17.1460843,39.925 17.8428389,40.625 18.7048193,40.625" id="Fill-5"></path>
                <path d="M18.7048193,46.875 L43.6445783,46.875 C44.5065587,46.875 45.2033133,46.175 45.2033133,45.3125 C45.2033133,44.45 44.5065587,43.75 43.6445783,43.75 L18.7048193,43.75 C17.8428389,43.75 17.1460843,44.45 17.1460843,45.3125 C17.1460843,46.175 17.8428389,46.875 18.7048193,46.875" id="Fill-7"></path>
                <path d="M18.7048193,53.125 L43.6445783,53.125 C44.5065587,53.125 45.2033133,52.425 45.2033133,51.5625 C45.2033133,50.7 44.5065587,50 43.6445783,50 L18.7048193,50 C17.8428389,50 17.1460843,50.7 17.1460843,51.5625 C17.1460843,52.425 17.8428389,53.125 18.7048193,53.125" id="Fill-9"></path>
                <path d="M18.7048193,59.375 L43.6445783,59.375 C44.5065587,59.375 45.2033133,58.675 45.2033133,57.8125 C45.2033133,56.95 44.5065587,56.25 43.6445783,56.25 L18.7048193,56.25 C17.8428389,56.25 17.1460843,56.95 17.1460843,57.8125 C17.1460843,58.675 17.8428389,59.375 18.7048193,59.375" id="Fill-11"></path>
            </g>
        </g>
    </g>
</svg>